<?xml version="1.0" encoding="iso-8859-1"?>
<!-- Generator: Adobe Illustrator 19.0.0, SVG Export Plug-In . SVG Version: 6.00 Build 0)  -->
<svg version="1.1" id="Layer_1" xmlns="http://www.w3.org/2000/svg" xmlns:xlink="http://www.w3.org/1999/xlink" x="0px" y="0px"
	 viewBox="0 0 514.055 514.055" style="enable-background:new 0 0 514.055 514.055;" xml:space="preserve">
<g>
	<path style="fill:#9069AE;" d="M260.648,3.531C265.062,0,267.71,0,281.834,0c7.062,0,17.655,0.883,23.834,1.766
		c29.131,3.531,47.669,7.945,73.269,20.303c25.6,12.359,41.49,23.834,63.559,44.138c20.303,19.421,30.897,34.428,43.255,58.262
		c16.772,32.662,25.6,70.621,27.366,112.993c0.883,14.124,0,17.655-3.531,22.069c-6.179,7.945-20.303,7.062-25.6-2.648
		c-1.766-2.648-1.766-5.297-2.648-16.772c-0.883-17.655-1.766-29.131-4.414-43.255c-9.71-53.848-36.193-97.103-78.565-128
		c-35.31-25.6-66.207-35.31-113.876-38.841c-16.772,0-19.421,0-22.952-3.531C254.469,22.069,254.469,9.71,260.648,3.531"/>
	<path style="fill:#9069AE;" d="M348.041,113.876c-16.772-9.71-42.372-17.655-65.324-19.421c-7.945-0.883-13.241-2.648-15.89-6.179
		c-5.297-4.414-5.297-12.359-1.766-17.655c4.414-7.062,11.476-7.945,31.779-4.414c51.2,7.062,90.924,30.897,117.407,68.855
		c15.007,21.186,23.834,46.786,26.483,73.269c0.883,9.71,0.883,27.366,0,30.897c-0.883,2.648-4.414,7.062-7.945,7.945
		c-3.531,1.766-10.593,1.766-14.124-0.883c-6.179-3.531-8.828-7.945-8.828-22.069c0-21.186-5.297-44.138-15.89-61.793
		C383.351,142.124,367.462,125.352,348.041,113.876"/>
	<path style="fill:#9069AE;" d="M370.11,230.4c-5.297,4.414-14.124,4.414-19.421,0c-4.414-2.648-5.297-6.179-6.179-15.007
		c-0.883-11.476-3.531-19.421-6.179-26.483c-7.062-15.89-20.303-23.834-42.372-26.483c-10.593-0.883-13.241-2.648-16.772-6.179
		c-6.179-7.062-3.531-18.538,4.414-22.952c3.531-1.766,4.414-1.766,11.476-0.883c4.414,0,10.593,0.883,14.124,1.766
		c16.772,3.531,29.131,9.71,40.607,19.421c14.124,13.241,22.069,28.248,24.717,51.2C376.289,219.807,375.406,225.986,370.11,230.4"
		/>
	<path style="fill:#9069AE;" d="M512.234,418.428c0-7.945-2.648-14.124-7.945-20.303c-5.297-6.179-41.49-35.31-59.145-46.786
		c-13.241-8.828-33.545-21.186-42.372-25.6c-12.359-6.179-24.717-7.062-36.193-3.531c-2.648,0.883-4.414,1.766-6.179,2.648
		c-5.297,2.648-9.71,7.945-20.303,20.303c-7.062,8.828-13.241,16.772-14.124,16.772c0,0-0.883,0-0.883,0.883
		c-0.883,0.883-3.531,1.766-5.297,2.648l0,0l0,0c-11.476,5.297-26.483,1.766-51.2-9.71c-19.421-9.71-36.193-21.186-55.614-38.841
		c-16.772-15.007-33.545-33.545-42.372-48.552c-12.359-19.421-21.186-44.138-21.186-58.262c0-6.179,2.648-14.124,5.297-18.538l0,0
		l0.883-0.883c0,0,0,0,0.883-0.883c0.883-0.883,1.766-1.766,2.648-1.766c3.531-2.648,7.945-7.062,12.359-10.593
		c20.303-15.89,24.717-21.186,27.366-30.014c2.648-8.828,0-20.303-8.828-36.193C174.137,82.097,130,26.483,114.11,15.89
		c-2.648-1.766-7.062-3.531-9.71-5.297c-7.062-1.766-16.772-2.648-22.069-1.766c-7.945,1.766-17.655,7.945-39.724,23.834
		c-13.241,9.71-30.897,26.483-35.31,33.545c-9.71,16.772-8.828,30.014,2.648,62.676c10.593,29.131,24.717,58.262,40.607,86.51l0,0
		l0.883,0.883c3.531,5.297,7.062,11.476,10.593,16.772c0,0.883,0.883,0.883,0.883,1.766c3.531,5.297,7.062,11.476,10.593,16.772
		c1.766,1.766,2.648,4.414,4.414,6.179c2.648,4.414,5.297,7.945,8.828,12.359c4.414,6.179,8.828,12.359,14.124,18.538
		c50.317,65.324,108.579,118.29,177.434,161.545c0.883,0.883,1.766,0.883,2.648,1.766c10.593,6.179,21.186,12.359,31.779,18.538
		c1.766,0.883,2.648,1.766,4.414,2.648c10.593,6.179,22.069,11.476,33.545,16.772c0.883,0.883,2.648,0.883,3.531,1.766
		c11.476,5.297,23.834,10.593,36.193,15.89c15.007,6.179,20.303,7.062,31.779,6.179c5.297,0,10.593-0.883,15.007-2.648
		c7.062-1.766,13.241-5.297,21.186-10.593c1.766-0.883,2.648-1.766,4.414-2.648c1.766-0.883,3.531-2.648,5.297-4.414
		c9.71-7.945,20.303-20.303,29.131-31.779c6.179-7.945,10.593-15.89,13.241-22.069C511.351,430.786,512.234,424.607,512.234,418.428
		"/>
</g>
<g>
</g>
<g>
</g>
<g>
</g>
<g>
</g>
<g>
</g>
<g>
</g>
<g>
</g>
<g>
</g>
<g>
</g>
<g>
</g>
<g>
</g>
<g>
</g>
<g>
</g>
<g>
</g>
<g>
</g>
</svg>
